<?xml version="1.0" encoding="utf-8"?>
<!-- Generator: Adobe Illustrator 24.0.1, SVG Export Plug-In . SVG Version: 6.00 Build 0)  -->
<svg version="1.1" id="Layer_1" xmlns="http://www.w3.org/2000/svg" xmlns:xlink="http://www.w3.org/1999/xlink" x="0px" y="0px"
	 viewBox="0 0 80 80" style="enable-background:new 0 0 80 80;" xml:space="preserve">
<style type="text/css">
	.st0{fill:none;stroke:#C15D2C;stroke-width:5;stroke-linecap:round;}
	.st1{fill:#FFFFFF;stroke:#C15D2C;stroke-width:4.5;stroke-linecap:round;}
	.st2{fill:none;stroke:#C15D2C;stroke-width:4.5;stroke-linecap:round;}
</style>
<path d="M8,0h64c4.4,0,8,3.6,8,8v64c0,4.4-3.6,8-8,8H8c-4.4,0-8-3.6-8-8V8C0,3.6,3.6,0,8,0z"/>
<path class="st0" d="M40,12c18,0,28,12,28,28S56,68,40,68S12,56,12,40c0-14,10-26,24-27.5"/>
<path class="st1" d="M47.3,27.8L32.7,52.2"/>
<path class="st2" d="M32.7,27.8l14.7,24.3"/>
</svg>
